<svg width="24" height="24" viewBox="0 0 24 24" fill="none" xmlns="http://www.w3.org/2000/svg">
<g id="rain-cloud--cloud-rain-rainy-meteorology-precipitation-weather">
<path id="Union" fill-rule="evenodd" clip-rule="evenodd" d="M6.42077 0.696433C7.67172 0.290037 9.01251 0.248114 10.2864 0.575566C11.5603 0.903018 12.7147 1.58631 13.6146 2.54558C14.3449 3.32405 14.8831 4.25816 15.1913 5.27322C15.9123 4.86495 16.7299 4.64592 17.5669 4.64314L17.5685 4.64313C18.8378 4.64313 20.055 5.14734 20.9525 6.04484C21.85 6.94233 22.3542 8.1596 22.3542 9.42885C22.3542 10.6981 21.85 11.9154 20.9525 12.8129C20.055 13.7104 18.8378 14.2146 17.5685 14.2146H8.56907L8.48954 13.7142C7.2966 13.7008 6.13032 13.3557 5.1216 12.7168C4.09063 12.0638 3.26683 11.1308 2.74651 10.0268C2.22619 8.92293 2.03085 7.69372 2.18331 6.48289C2.33577 5.27205 2.82974 4.12964 3.60747 3.18917C4.36843 2.26899 5.37027 1.57935 6.50029 1.19683L6.42077 0.696433ZM8.468 17.9071C8.65324 17.5366 8.50307 17.0861 8.13259 16.9009C7.7621 16.7156 7.3116 16.8658 7.12636 17.2363L6.26922 18.9506C6.08397 19.3211 6.23414 19.7716 6.60463 19.9568C6.97511 20.1421 7.42561 19.9919 7.61086 19.6214L8.468 17.9071ZM16.5324 16.9009C16.9029 17.0861 17.0531 17.5366 16.8678 17.9071L16.0107 19.6214C15.8254 19.9919 15.3749 20.1421 15.0045 19.9568C14.634 19.7716 14.4838 19.3211 14.669 18.9506L15.5262 17.2363C15.7114 16.8658 16.1619 16.7156 16.5324 16.9009ZM11.8108 21.3357C11.996 20.9652 11.8458 20.5147 11.4754 20.3295C11.1049 20.1442 10.6544 20.2944 10.4691 20.6649L9.61199 22.3792C9.42675 22.7496 9.57692 23.2001 9.9474 23.3854C10.3179 23.5706 10.7684 23.4205 10.9536 23.05L11.8108 21.3357ZM3.07553 20.3295C3.44601 20.5147 3.59618 20.9652 3.41094 21.3357L2.5538 23.05C2.36856 23.4205 1.91805 23.5706 1.54757 23.3854C1.17708 23.2001 1.02691 22.7496 1.21216 22.3792L2.0693 20.6649C2.25454 20.2944 2.70505 20.1442 3.07553 20.3295ZM20.2106 21.3357C20.3958 20.9652 20.2457 20.5147 19.8752 20.3295C19.5047 20.1442 19.0542 20.2944 18.869 20.6649L18.0118 22.3792C17.8266 22.7496 17.9767 23.2001 18.3472 23.3854C18.7177 23.5706 19.1682 23.4205 19.3535 23.05L20.2106 21.3357Z" fill="#4F71BE"/>
</g>
</svg>
